<svg xmlns="http://www.w3.org/2000/svg" viewBox="0 0 64 64" width="64" height="64">
  <circle cx="32" cy="32" r="28" fill="#8ac2ff"/>
  <circle cx="32" cy="32" r="26" fill="#fff"/>
  <path fill="#b3b3b3" d="M32 18v-4M50.909 24.909l-3.536-3.536M45 8h-4M24.909 13.091l-3.536-3.536M18 19V8M13.091 24.909L9.555 21.373M8 30h12M13.091 35.091L9.555 38.627M18 46v-11M24.909 50.909l-3.536 3.536M30 56h4M45 56h-4M50.909 50.909l-3.536 3.536M56 45v-12M50.909 30.909l3.536-3.536M45 56a22 22 0 1 1 0-44 22 22 0 0 1 0 44z"/>
  <path fill="#d9d9d9" d="M32 6c-14.359 0-26 11.641-26 26s11.641 26 26 26 26-11.641 26-26-11.641-26-26-26zm0 48c-11.028 0-20-8.972-20-20s8.972-20 20-20 20 8.972 20 20-8.972 20-20 20z"/>
  <path fill="#b3b3b3" d="M32 12a2 2 0 0 1 2 2v16h8a2 2 0 0 1 0 4h-10V14a2 2 0 0 1 2-2z"/>
  <path fill="#fff" d="M32 8a4 4 0 0 1 4 4v20h12a4 4 0 0 1 0 8H36V56a4 4 0 0 1-8 0V12a4 4 0 0 1 4-4z"/>
  <circle cx="32" cy="32" r="2" fill="#b3b3b3"/>
  <path fill="#b3b3b3" d="M30.364 27.636l-6.364 6.364a2 2 0 0 0 0 2.828l6.364 6.364a2 2 0 1 0 2.828-2.828l-4.536-4.536 4.536-4.536a2 2 0 1 0-2.828-2.828z"/>
</svg>