<svg xmlns="http://www.w3.org/2000/svg" viewBox="0 0 200 200" width="200" height="200">
  <rect x="0" y="0" width="200" height="200" rx="20" fill="#47c1bf"/>
  <circle cx="100" cy="100" r="60" fill="#fff"/>
  <path d="M88.76 90.47a6.48 6.48 0 0 1 8.93-.27c1.93 1.85 3.72 3.93 5.44 6.14l6.15-6.08a6.48 6.48 0 0 1 9.15.13 6.48 6.48 0 0 1-.12 9.13l-6.2 6.14a21.4 21.4 0 0 1 5.69 14.44v.43a21.4 21.4 0 0 1-8.47 16.61l-.43.32a21.4 21.4 0 0 1-26.23-1.23l-6.15-6.14a6.48 6.48 0 0 1-.13-9.15 6.48 6.48 0 0 1 9.13-.13l6.15 6.14a8.44 8.44 0 0 0 11.47 0l.45-.43c3.16-3.09 6.05-6.46 8.66-10.09a21.4 21.4 0 0 0-17.91-33.28zM93.33 111.69l6.2 6.14a6.48 6.48 0 0 1 .13 9.15 6.48 6.48 0 0 1-9.13.13l-6.15-6.14a8.44 8.44 0 0 0-11.47 0l-.45.43a21.4 21.4 0 0 1-8.67 10.08 21.4 21.4 0 0 1 17.9 33.28 6.48 6.48 0 0 1-8.93.27c-1.93-1.85-3.72-3.93-5.44-6.14l-6.15 6.08a6.48 6.48 0 0 1-9.15-.13 6.48 6.48 0 0 1 .12-9.13l6.2-6.14a21.4 21.4 0 0 1-5.69-14.44v-.43a21.4 21.4 0 0 1 8.47-16.61l.43-.32a21.4 21.4 0 0 1 26.23 1.23z" fill="#47c1bf"/>
  <text x="100" y="140" font-size="40" font-weight="bold" text-anchor="middle" fill="#1d1d"/>
</svg>
